{
  "accessors": [
    {
      "bufferView": 2,
      "componentType": 5126,
      "count": 384,
      "max": [
        16.530046463012695,
        -7.328285217285156,
        16.618654251098633
      ],
      "min": [
        -16.52528190612793,
        -9.56846809387207,
        -16.61874771118164
      ],
      "type": "VEC3"
    },
    {
      "bufferView": 2,
      "byteOffset": 4608,
      "componentType": 5126,
      "count": 384,
      "max": [
        1.0,
        1.0,
        1.0
      ],
      "min": [
        -1.0,
        -1.0,
        -1.0
      ],
      "type": "VEC3"
    },
    {
      "bufferView": 3,
      "componentType": 5126,
      "count": 384,
      "max": [
        0.34368225932121277,
        1.0,
        0.9976873993873596,
        1.0
      ],
      "min": [
        -0.3437325060367584,
        -1.0,
        -0.9976879954338074,
        1.0
      ],
      "type": "VEC4"
    },
    {
      "bufferView": 1,
      "componentType": 5126,
      "count": 384,
      "max": [
        0.9849470853805542,
        0.9888133406639099
      ],
      "min": [
        0.14592821896076202,
        0.004926013760268688
      ],
      "type": "VEC2"
    },
    {
      "bufferView": 0,
      "componentType": 5125,
      "count": 1080,
      "type": "SCALAR"
    },
    {
      "bufferView": 2,
      "byteOffset": 9216,
      "componentType": 5126,
      "count": 1120,
      "max": [
        9.189103126525879,
        3.059724807739258,
        9.23971939086914
      ],
      "min": [
        -9.18910026550293,
        -1.3268735301608103e-06,
        -9.239706993103027
      ],
      "type": "VEC3"
    },
    {
      "bufferView": 2,
      "byteOffset": 22656,
      "componentType": 5126,
      "count": 1120,
      "max": [
        0.9945223331451416,
        1.0,
        1.0
      ],
      "min": [
        -0.9945223331451416,
        -3.8870839489391074e-05,
        -1.0
      ],
      "type": "VEC3"
    },
    {
      "bufferView": 3,
      "byteOffset": 6144,
      "componentType": 5126,
      "count": 1120,
      "max": [
        0.8223585486412048,
        0.9999995827674866,
        0.09956954419612885,
        1.0
      ],
      "min": [
        -0.33054232597351074,
        -0.9999826550483704,
        -0.9551817178726196,
        1.0
      ],
      "type": "VEC4"
    },
    {
      "bufferView": 1,
      "byteOffset": 3072,
      "componentType": 5126,
      "count": 1120,
      "max": [
        0.10547138750553131,
        0.9041304588317871
      ],
      "min": [
        0.004927061963826418,
        0.8028256893157959
      ],
      "type": "VEC2"
    },
    {
      "bufferView": 0,
      "byteOffset": 4320,
      "componentType": 5125,
      "count": 3594,
      "type": "SCALAR"
    },
    {
      "bufferView": 2,
      "byteOffset": 36096,
      "componentType": 5126,
      "count": 1783,
      "max": [
        -3.956160068511963,
        15.061485290527344,
        -9.313077926635742
      ],
      "min": [
        -12.930252075195313,
        -15.061497688293457,
        -18.972360610961914
      ],
      "type": "VEC3"
    },
    {
      "bufferView": 2,
      "byteOffset": 57492,
      "componentType": 5126,
      "count": 1783,
      "max": [
        1.0,
        0.9999227523803711,
        1.0
      ],
      "min": [
        -1.0,
        -0.9999227523803711,
        -0.9994412660598755
      ],
      "type": "VEC3"
    },
    {
      "bufferView": 3,
      "byteOffset": 24064,
      "componentType": 5126,
      "count": 1783,
      "max": [
        1.0,
        1.0,
        1.0,
        1.0
      ],
      "min": [
        -1.0,
        -1.0,
        -1.0,
        -1.0
      ],
      "type": "VEC4"
    },
    {
      "bufferView": 1,
      "byteOffset": 12032,
      "componentType": 5126,
      "count": 1783,
      "max": [
        0.9410728812217712,
        0.9673388004302979
      ],
      "min": [
        0.001953125,
        0.001953125
      ],
      "type": "VEC2"
    },
    {
      "bufferView": 0,
      "byteOffset": 18696,
      "componentType": 5125,
      "count": 5316,
      "type": "SCALAR"
    },
    {
      "bufferView": 2,
      "byteOffset": 78888,
      "componentType": 5126,
      "count": 2034,
      "max": [
        33.02419662475586,
        4.740739822387695,
        33.024208068847656
      ],
      "min": [
        -33.02417755126953,
        -31.147289276123047,
        -33.02418518066406
      ],
      "type": "VEC3"
    },
    {
      "bufferView": 2,
      "byteOffset": 103296,
      "componentType": 5126,
      "count": 2034,
      "max": [
        0.9999588131904602,
        0.9998471736907959,
        0.9999588131904602
      ],
      "min": [
        -0.9999588131904602,
        -0.9999940991401672,
        -0.9999588131904602
      ],
      "type": "VEC3"
    },
    {
      "bufferView": 3,
      "byteOffset": 52592,
      "componentType": 5126,
      "count": 2034,
      "max": [
        1.0,
        0.9999582767486572,
        1.0,
        1.0
      ],
      "min": [
        -0.9999995231628418,
        -0.888180136680603,
        -0.9999995231628418,
        1.0
      ],
      "type": "VEC4"
    },
    {
      "bufferView": 1,
      "byteOffset": 26296,
      "componentType": 5126,
      "count": 2034,
      "max": [
        0.755111813545227,
        0.998046875
      ],
      "min": [
        0.004926006309688091,
        0.004926062189042568
      ],
      "type": "VEC2"
    },
    {
      "bufferView": 0,
      "byteOffset": 39960,
      "componentType": 5125,
      "count": 8280,
      "type": "SCALAR"
    },
    {
      "bufferView": 2,
      "byteOffset": 127704,
      "componentType": 5126,
      "count": 5432,
      "max": [
        25.678852081298828,
        4.4265875816345215,
        25.649934768676758
      ],
      "min": [
        -25.678848266601563,
        -31.550676345825195,
        -25.64995574951172
      ],
      "type": "VEC3"
    },
    {
      "bufferView": 2,
      "byteOffset": 192888,
      "componentType": 5126,
      "count": 5432,
      "max": [
        1.0,
        1.0,
        1.0
      ],
      "min": [
        -1.0,
        -1.0,
        -1.0
      ],
      "type": "VEC3"
    },
    {
      "bufferView": 3,
      "byteOffset": 85136,
      "componentType": 5126,
      "count": 5432,
      "max": [
        0.9999865293502808,
        1.0,
        0.9999526739120483,
        1.0
      ],
      "min": [
        -0.9999845027923584,
        -1.0,
        -0.9999479651451111,
        -1.0
      ],
      "type": "VEC4"
    },
    {
      "bufferView": 1,
      "byteOffset": 42568,
      "componentType": 5126,
      "count": 5432,
      "max": [
        0.9924784898757935,
        0.9959927201271057
      ],
      "min": [
        0.004927506670355797,
        0.004926220513880253
      ],
      "type": "VEC2"
    },
    {
      "bufferView": 0,
      "byteOffset": 73080,
      "componentType": 5125,
      "count": 17478,
      "type": "SCALAR"
    },
    {
      "bufferView": 2,
      "byteOffset": 258072,
      "componentType": 5126,
      "count": 510,
      "max": [
        5.71453857421875,
        -1.433293104171753,
        6.517566680908203
      ],
      "min": [
        -6.800410747528076,
        -2.648641586303711,
        -6.523647308349609
      ],
      "type": "VEC3"
    },
    {
      "bufferView": 2,
      "byteOffset": 264192,
      "componentType": 5126,
      "count": 510,
      "max": [
        1.0,
        1.0,
        1.0
      ],
      "min": [
        -1.0,
        -1.019436808746832e-06,
        -1.0
      ],
      "type": "VEC3"
    },
    {
      "bufferView": 3,
      "byteOffset": 172048,
      "componentType": 5126,
      "count": 510,
      "max": [
        0.9308710098266602,
        0.999130129814148,
        0.9784751534461975,
        -1.0
      ],
      "min": [
        -1.0,
        -0.9994027614593506,
        -0.9825770854949951,
        -1.0
      ],
      "type": "VEC4"
    },
    {
      "bufferView": 1,
      "byteOffset": 86024,
      "componentType": 5126,
      "count": 510,
      "max": [
        0.17253489792346954,
        0.24730989336967468
      ],
      "min": [
        0.00493618194013834,
        0.03324008733034134
      ],
      "type": "VEC2"
    },
    {
      "bufferView": 0,
      "byteOffset": 142992,
      "componentType": 5125,
      "count": 1770,
      "type": "SCALAR"
    }
  ],
  "asset": {
    "extras": {
      "author": "Naman Deep (https://sketchfab.com/namandeep444)",
      "license": "CC-BY-4.0 (http://creativecommons.org/licenses/by/4.0/)",
      "source": "https://sketchfab.com/3d-models/mazda-rx7--wheel-ac11fffbbb504d118d988f5f2dc438f9",
      "title": "MAZDA_RX7_ Wheel"
    },
    "generator": "Sketchfab-16.31.0",
    "version": "2.0"
  },
  "bufferViews": [
    {
      "buffer": 0,
      "byteLength": 150072,
      "name": "floatBufferViews",
      "target": 34963
    },
    {
      "buffer": 0,
      "byteLength": 90104,
      "byteOffset": 150072,
      "byteStride": 8,
      "name": "floatBufferViews",
      "target": 34962
    },
    {
      "buffer": 0,
      "byteLength": 270312,
      "byteOffset": 240176,
      "byteStride": 12,
      "name": "floatBufferViews",
      "target": 34962
    },
    {
      "buffer": 0,
      "byteLength": 180208,
      "byteOffset": 510488,
      "byteStride": 16,
      "name": "floatBufferViews",
      "target": 34962
    }
  ],
  "buffers": [
    {
      "byteLength": 690696,
      "uri": "scene.bin"
    }
  ],
  "extensionsUsed": [
    "KHR_materials_specular"
  ],
  "images": [
    {
      "uri": "textures/Tire_baseColor.png"
    },
    {
      "uri": "textures/Tire_metallicRoughness.png"
    },
    {
      "uri": "textures/Tire_normal.png"
    }
  ],
  "materials": [
    {
      "doubleSided": true,
      "extensions": {
        "KHR_materials_specular": {
          "specularColorFactor": [
            1.0,
            1.0,
            1.0
          ],
          "specularFactor": 0.5219751671489173
        }
      },
      "name": "Tire",
      "normalTexture": {
        "index": 2
      },
      "occlusionTexture": {
        "index": 1
      },
      "pbrMetallicRoughness": {
        "baseColorTexture": {
          "index": 0
        },
        "metallicRoughnessTexture": {
          "index": 1
        }
      }
    }
  ],
  "meshes": [
    {
      "name": "Circle.041_Tire_0",
      "primitives": [
        {
          "attributes": {
            "NORMAL": 1,
            "POSITION": 0,
            "TANGENT": 2,
            "TEXCOORD_0": 3
          },
          "indices": 4,
          "material": 0,
          "mode": 4
        }
      ]
    },
    {
      "name": "Circle.042_Tire_0",
      "primitives": [
        {
          "attributes": {
            "NORMAL": 6,
            "POSITION": 5,
            "TANGENT": 7,
            "TEXCOORD_0": 8
          },
          "indices": 9,
          "material": 0,
          "mode": 4
        }
      ]
    },
    {
      "name": "Plane.053_Tire_0",
      "primitives": [
        {
          "attributes": {
            "NORMAL": 11,
            "POSITION": 10,
            "TANGENT": 12,
            "TEXCOORD_0": 13
          },
          "indices": 14,
          "material": 0,
          "mode": 4
        }
      ]
    },
    {
      "name": "tire.002_Tire_0",
      "primitives": [
        {
          "attributes": {
            "NORMAL": 16,
            "POSITION": 15,
            "TANGENT": 17,
            "TEXCOORD_0": 18
          },
          "indices": 19,
          "material": 0,
          "mode": 4
        }
      ]
    },
    {
      "name": "TIRE_RIM.002_Tire_0",
      "primitives": [
        {
          "attributes": {
            "NORMAL": 21,
            "POSITION": 20,
            "TANGENT": 22,
            "TEXCOORD_0": 23
          },
          "indices": 24,
          "material": 0,
          "mode": 4
        }
      ]
    },
    {
      "name": "TIRE_RIM.004_Tire_0",
      "primitives": [
        {
          "attributes": {
            "NORMAL": 26,
            "POSITION": 25,
            "TANGENT": 27,
            "TEXCOORD_0": 28
          },
          "indices": 29,
          "material": 0,
          "mode": 4
        }
      ]
    }
  ],
  "nodes": [
    {
      "children": [
        1
      ],
      "matrix": [
        1.0,
        0.0,
        0.0,
        0.0,
        0.0,
        2.220446049250313e-16,
        -1.0,
        0.0,
        0.0,
        1.0,
        2.220446049250313e-16,
        0.0,
        0.0,
        0.0,
        0.0,
        1.0
      ],
      "name": "Sketchfab_model"
    },
    {
      "children": [
        2
      ],
      "matrix": [
        0.009999999776482582,
        0.0,
        0.0,
        0.0,
        0.0,
        0.0,
        0.009999999776482582,
        0.0,
        0.0,
        -0.009999999776482582,
        0.0,
        0.0,
        0.0,
        0.0,
        0.0,
        1.0
      ],
      "name": "bc570745909543b6ba3dfe61eb198012.fbx"
    },
    {
      "children": [
        3,
        5,
        7,
        9,
        11,
        13
      ],
      "name": "RootNode"
    },
    {
      "children": [
        4
      ],
      "matrix": [
        1.9470718870540082e-07,
        -0.9999999999999811,
        0.0,
        0.0,
        0.9999999999999811,
        1.9470718870540082e-07,
        0.0,
        0.0,
        0.0,
        0.0,
        1.0,
        0.0,
        86.95165252685547,
        31.403060913085938,
        124.92816162109375,
        1.0
      ],
      "name": "Circle.041"
    },
    {
      "mesh": 0,
      "name": "Circle.041_Tire_0"
    },
    {
      "children": [
        6
      ],
      "matrix": [
        -1.2076324917842385e-07,
        -0.7412395377646337,
        0.6712406034012377,
        0.0,
        0.9999999999999813,
        -1.903774045075579e-07,
        -3.031999268321428e-08,
        0.0,
        1.5026342126134296e-07,
        0.6712406034012215,
        0.7412395377646428,
        0.0,
        79.62873840332031,
        31.40304946899414,
        124.92815399169922,
        1.0
      ],
      "name": "Circle.042"
    },
    {
      "mesh": 1,
      "name": "Circle.042_Tire_0"
    },
    {
      "children": [
        8
      ],
      "matrix": [
        1.0,
        0.0,
        0.0,
        0.0,
        0.0,
        1.0,
        0.0,
        0.0,
        0.0,
        0.0,
        1.0,
        0.0,
        86.9516372680664,
        31.40304946899414,
        124.92816162109375,
        1.0
      ],
      "name": "Plane.053"
    },
    {
      "mesh": 2,
      "name": "Plane.053_Tire_0"
    },
    {
      "children": [
        10
      ],
      "matrix": [
        1.9470718870540082e-07,
        -0.9999999999999811,
        0.0,
        0.0,
        0.9999999999999811,
        1.9470718870540082e-07,
        0.0,
        0.0,
        0.0,
        0.0,
        1.0,
        0.0,
        86.9516372680664,
        31.403059005737305,
        124.92816162109375,
        1.0
      ],
      "name": "tire.002"
    },
    {
      "mesh": 3,
      "name": "tire.002_Tire_0"
    },
    {
      "children": [
        12
      ],
      "matrix": [
        1.6862136003848907e-07,
        -0.8660253448800546,
        -0.49999998281606806,
        0.0,
        0.9999999999999849,
        1.233503640341027e-07,
        1.235936411825289e-07,
        0.0,
        -4.536004584693269e-08,
        -0.49999998281608127,
        0.8660253448800621,
        0.0,
        86.9516372680664,
        31.40304946899414,
        124.92816162109375,
        1.0
      ],
      "name": "TIRE_RIM.002"
    },
    {
      "mesh": 4,
      "name": "TIRE_RIM.002_Tire_0"
    },
    {
      "children": [
        14
      ],
      "matrix": [
        1.6862136003848907e-07,
        -0.8660253448800546,
        -0.49999998281606806,
        0.0,
        0.9999999999999849,
        1.233503640341027e-07,
        1.235936411825289e-07,
        0.0,
        -4.536004584693269e-08,
        -0.49999998281608127,
        0.8660253448800621,
        0.0,
        86.95165252685547,
        31.40304946899414,
        124.92816162109375,
        1.0
      ],
      "name": "TIRE_RIM.004"
    },
    {
      "mesh": 5,
      "name": "TIRE_RIM.004_Tire_0"
    }
  ],
  "samplers": [
    {
      "magFilter": 9729,
      "minFilter": 9987,
      "wrapS": 10497,
      "wrapT": 10497
    }
  ],
  "scene": 0,
  "scenes": [
    {
      "name": "Sketchfab_Scene",
      "nodes": [
        0
      ]
    }
  ],
  "textures": [
    {
      "sampler": 0,
      "source": 0
    },
    {
      "sampler": 0,
      "source": 1
    },
    {
      "sampler": 0,
      "source": 2
    }
  ]
}
